<svg xmlns="http://www.w3.org/2000/svg" viewBox="0 0 48 48"><path fill="#ede7f6" d="M24,4C13,4,4,13,4,24s9,20,20,20s20-9,20-20S35,4,24,4z"/><path fill="#673ab7" d="M24,44c4.5,0,8.6-1.5,11.9-4c0,0,0,0,0,0c-0.6-7.6-8.2-9-8.2-9L24,31.8L20.3,31c0,0-7.6,1.4-8.2,9c0,0,0,0,0,0C15.4,42.5,19.5,44,24,44z"/><path fill="#311b92" d="M18,31.8c0.5,3,3,5.2,6.1,5.2c3.1,0,5.5-2.3,5.9-5.2c-0.9-0.4-1.6-0.6-2-0.7c0,2.2-1.8,3.8-4,3.8c-2.2,0-4-1.8-4-3.8C19.6,31.2,18.9,31.4,18,31.8z"/><path fill="#ffa726" d="M32,22.5c0,0.8-0.7,1.5-1.5,1.5S29,23.3,29,22.5s0.7-1.5,1.5-1.5S32,21.7,32,22.5 M19,22.5c0-0.8-0.7-1.5-1.5-1.5S16,21.7,16,22.5s0.7,1.5,1.5,1.5S19,23.3,19,22.5"/><path fill="#ff9800" d="M24,35c-4,0-4-4-4-4v-4h8v4C28,31,28,35,24,35z"/><path fill="#ffb74d" d="M31,18.7c0-5.9-14-3.8-14,0v4.4c0,3.8,3.1,6.9,7,6.9s7-3.1,7-6.9V18.7z"/><path fill="#424242" d="M24,11c-4.9,0-8,4.3-8,8.2V21l2,2v-4l9.2-3l2.8,3v4l2-2v-0.8c0-3.2-0.8-6.8-4.8-7.6L26.4,11H24z"/><path fill="#784719" d="M26,22c0-0.6,0.4-1,1-1s1,0.4,1,1s-0.4,1-1,1S26,22.6,26,22 M20,22c0,0.6,0.4,1,1,1s1-0.4,1-1s-0.4-1-1-1S20,21.4,20,22"/></svg>