<?xml version="1.0" standalone="no"?>
<!DOCTYPE svg PUBLIC "-//W3C//DTD SVG 20010904//EN"
 "http://www.w3.org/TR/2001/REC-SVG-20010904/DTD/svg10.dtd">
<svg version="1.0" xmlns="http://www.w3.org/2000/svg"
 width="300.000000pt" height="300.000000pt" viewBox="0 0 300.000000 300.000000"
 preserveAspectRatio="xMidYMid meet">
<metadata>
Created by potrace 1.14, written by Peter Selinger 2001-2017
</metadata>
<g transform="translate(0.000000,300.000000) scale(0.100000,-0.100000)"
fill="#000000" stroke="none">
<path d="M1105 2599 c-11 -4 -220 -196 -465 -426 l-445 -418 -3 -625 c-2 -579
-1 -628 15 -660 36 -71 -53 -66 1309 -73 1349 -6 1275 -9 1314 55 19 32 20 49
20 669 l0 636 -471 424 c-300 270 -479 425 -494 427 -20 3 -55 -25 -176 -140
-83 -79 -164 -153 -180 -166 l-29 -24 -59 54 c-32 29 -110 101 -172 159 -63
58 -121 108 -129 111 -8 3 -24 2 -35 -3z m884 -141 c1 -5 -50 -8 -111 -8
l-113 1 59 54 59 55 53 -48 c28 -26 52 -50 53 -54z m-848 82 c18 -10 19 -24
19 -298 l0 -288 -35 -34 -35 -34 0 320 c0 348 2 360 51 334z m-128 -732 c-15
-15 -30 -28 -35 -28 -4 0 -8 140 -8 312 l0 312 33 34 32 33 3 -317 2 -318 -27
-28z m267 427 l0 -171 -35 -34 -35 -34 0 239 0 239 35 -34 35 -34 0 -171z
m811 134 c21 -17 39 -35 39 -40 0 -5 -103 -9 -245 -9 -135 0 -245 3 -245 6 0
4 17 22 38 40 l37 33 169 1 168 0 39 -31z m-1171 -969 l0 -950 -35 0 -35 0 0
922 0 922 27 28 c15 15 30 28 35 28 4 0 8 -427 8 -950z m485 891 l57 -54 -58
-58 c-32 -33 -62 -59 -66 -59 -4 0 -8 52 -8 116 0 65 4 114 9 112 5 -1 35 -27
66 -57z m835 -56 l34 -35 -345 0 c-332 0 -347 1 -364 20 -15 16 -15 22 -5 35
11 13 58 15 329 15 l317 0 34 -35z m-1442 -887 l-3 -893 -32 -3 -33 -3 0 867
0 868 27 28 c15 15 30 28 35 28 4 0 7 -402 6 -892z m1001 597 l242 -210 -7
-640 -6 -640 -529 -3 -529 -2 0 624 0 623 265 252 266 252 28 -23 c16 -13 137
-117 270 -233z m571 173 c22 -18 40 -36 40 -40 0 -5 -151 -8 -336 -8 l-336 0
-39 31 c-21 17 -39 35 -39 40 0 5 139 9 336 9 l335 0 39 -32z m-1697 -830 l-3
-833 -30 -3 -30 -3 0 815 0 814 28 21 c15 11 29 21 32 21 3 0 4 -375 3 -832z
m1842 701 c19 -17 35 -34 35 -38 0 -3 -152 -5 -339 -3 l-338 3 -39 34 -39 34
342 1 342 0 36 -31z m-1965 -760 l0 -780 -32 3 -33 3 -3 744 -2 745 32 33 c18
18 33 33 35 33 2 0 3 -351 3 -781z m-120 -55 l0 -725 -32 3 -33 3 -3 689 -2
690 32 33 c18 18 33 33 35 33 2 0 3 -327 3 -726z m2228 686 c17 -16 32 -32 32
-35 0 -3 -151 -5 -335 -5 l-335 0 -38 35 -37 34 340 0 340 0 33 -29z m-2348
-735 c0 -708 1 -696 -46 -644 -18 20 -19 47 -22 632 l-2 611 32 33 c17 18 33
33 35 33 2 0 3 -299 3 -665z m2470 621 c13 -15 20 -32 17 -40 -6 -14 -49 -16
-357 -16 l-350 0 0 40 0 40 333 0 334 0 23 -24z m18 -143 l3 -33 -355 0 -356
0 0 35 0 35 353 -2 352 -3 3 -32z m-3 -125 l0 -33 -352 -3 -353 -2 0 33 c0 19
2 36 4 38 2 2 161 3 353 2 l348 -2 0 -33z m3 -125 l-3 -38 -352 -3 -353 -2 0
40 0 40 356 0 355 0 -3 -37z m2 -128 l0 -35 -355 0 -355 0 0 35 0 35 355 0
355 0 0 -35z m-5 -125 l0 -35 -352 -3 -353 -2 0 40 0 40 353 -2 352 -3 0 -35z
m5 -125 l0 -35 -355 0 -355 0 0 35 0 35 355 0 355 0 0 -35z m0 -130 l0 -35
-355 0 -355 0 0 35 0 35 355 0 355 0 0 -35z m-2 -122 l-3 -38 -352 -3 -353 -2
0 40 0 40 356 0 355 0 -3 -37z m2 -128 l0 -35 -355 0 -355 0 0 35 0 35 355 0
355 0 0 -35z m-6 -93 c7 -12 -19 -41 -45 -49 -13 -4 -167 -7 -341 -5 l-318 3
0 29 0 30 349 0 c193 0 352 -3 355 -8z"/>
<path d="M1277 1694 c-4 -4 -7 -49 -7 -101 l0 -93 105 0 106 0 -3 98 -3 97
-95 3 c-53 1 -99 0 -103 -4z"/>
<path d="M1550 1600 l0 -100 100 0 100 0 0 100 0 100 -100 0 -100 0 0 -100z"/>
<path d="M1270 1320 l0 -100 105 0 105 0 0 100 0 100 -105 0 -105 0 0 -100z"/>
<path d="M1550 1320 l0 -100 100 0 100 0 0 100 0 100 -100 0 -100 0 0 -100z"/>
</g>
</svg>
